<svg viewBox="0 0 612.043 612.043" xmlns="http://www.w3.org/2000/svg" xmlns:xlink="http://www.w3.org/1999/xlink"><style>:root&gt;svg{display:none}:root&gt;svg:target{display:block}</style><svg viewBox="0 0 25 24" id="arrow-next" xmlns="http://www.w3.org/2000/svg"><path d="M24.394 13.06a1.5 1.5 0 000-2.12l-9.546-9.547a1.5 1.5 0 00-2.121 2.122L21.212 12l-8.485 8.485a1.5 1.5 0 102.121 2.122l9.546-9.546zM0 13.5h23.333v-3H0v3z"/></svg><svg viewBox="0 0 25 24" id="arrow-prew" xmlns="http://www.w3.org/2000/svg"><path d="M.606 10.94a1.5 1.5 0 000 2.12l9.546 9.547a1.5 1.5 0 002.121-2.122L3.788 12l8.485-8.485a1.5 1.5 0 10-2.121-2.122L.606 10.94zM25 10.5H1.667v3H25v-3z"/></svg><svg viewBox="0 0 29.125 29.125" id="calendar" xmlns="http://www.w3.org/2000/svg"><path d="M21.703 6.148a2.014 2.014 0 002.021-2.016V2.02C23.724.9 22.822 0 21.703 0c-1.114 0-2.018.9-2.018 2.02v2.113a2.015 2.015 0 002.018 2.015z"/><path d="M28.883 3.498h-4.069v1.023a3.078 3.078 0 01-3.074 3.078 3.077 3.077 0 01-3.076-3.078V3.498h-8.202v1.023a3.075 3.075 0 11-6.149 0V3.498L.209 3.445v25.678l2.052.002h24.603l2.051-.008-.032-25.619zm-2.02 23.582H2.261V10.674h24.603V27.08h-.001z"/><path d="M7.352 6.148a2.014 2.014 0 002.021-2.016V2.02A2.017 2.017 0 007.352 0C6.237 0 5.334.9 5.334 2.02v2.113c0 1.117.903 2.015 2.018 2.015zm.446 15.604c.422.23 1.381.619 2.346.619 1.224 0 1.843-.588 1.843-1.334 0-1.006-.996-1.457-2.028-1.457h-.964v-1.691h.928c.792 0 1.785-.311 1.785-1.164 0-.605-.483-1.055-1.488-1.055-.823 0-1.688.357-2.095.607l-.481-1.705c.609-.389 1.8-.762 3.12-.762 2.142 0 3.33 1.131 3.33 2.51 0 1.072-.601 1.926-1.845 2.342v.033c1.211.217 2.189 1.133 2.189 2.465 0 1.768-1.566 3.07-4.127 3.07-1.305 0-2.403-.34-2.991-.699l.478-1.779zm11.203-5.676h-.028l-1.923.914-.389-1.769 2.683-1.239h1.938v10.08h-2.281z"/></svg><svg viewBox="0 0 490 490" id="clock" xmlns="http://www.w3.org/2000/svg"><path d="M245 0C109.5 0 0 109.5 0 245s109.5 245 245 245 245-109.5 245-245S380.5 0 245 0zm0 449.3c-112.6 0-204.3-91.7-204.3-204.3S132.4 40.7 245 40.7 449.3 132.4 449.3 245 357.6 449.3 245 449.3z"/><path d="M290.9 224.1h-25v-95.9c0-11.5-9.4-20.9-20.9-20.9s-20.9 9.4-20.9 20.9V245c0 11.5 9.4 20.9 20.9 20.9h45.9c11.5 0 20.9-9.4 20.9-20.9s-9.5-20.9-20.9-20.9z"/></svg><svg viewBox="0 0 612.043 612.043" id="cross" xmlns="http://www.w3.org/2000/svg"><path d="M397.503 306.011L593.08 110.434c25.27-25.269 25.27-66.213 0-91.482-25.269-25.269-66.213-25.269-91.481 0L306.022 214.551 110.445 18.974c-25.269-25.269-66.213-25.269-91.482 0s-25.269 66.213 0 91.482L214.54 306.033 18.963 501.61c-25.269 25.269-25.269 66.213 0 91.481 25.269 25.27 66.213 25.27 91.482 0l195.577-195.576 195.577 195.576c25.269 25.27 66.213 25.27 91.481 0 25.27-25.269 25.27-66.213 0-91.481L397.503 306.011z"/></svg><svg viewBox="0 0 463 463" id="fingerprint" xmlns="http://www.w3.org/2000/svg"><path d="M259.476 280.364V247.5c0-12.958-10.542-23.5-23.5-23.5s-23.5 10.542-23.5 23.5v29.672c0 35.757-13.173 70.087-37.094 96.665l-32.981 36.646a7.501 7.501 0 0011.15 10.035l32.981-36.646c26.403-29.338 40.944-67.231 40.944-106.7V247.5c0-4.687 3.813-8.5 8.5-8.5s8.5 3.813 8.5 8.5v32.864c0 44.003-16.301 86.167-45.901 118.727l-32.149 35.364a7.5 7.5 0 0011.099 10.09l32.148-35.364c32.116-35.327 49.803-81.075 49.803-128.817z"/><path d="M291.476 247.5c0-30.603-24.897-55.5-55.5-55.5s-55.5 24.897-55.5 55.5v29.672a112.322 112.322 0 01-28.879 75.258l-23.447 26.053a7.501 7.501 0 0011.15 10.035l23.447-26.053a127.3 127.3 0 0032.73-85.293V247.5c0-22.332 18.168-40.5 40.5-40.5s40.5 18.168 40.5 40.5v32.864c0 51.979-19.256 101.789-54.223 140.252l-27.125 29.839a7.5 7.5 0 1011.098 10.09l27.126-29.839c37.481-41.23 58.123-94.622 58.123-150.342V247.5z"/><path d="M323.476 247.5c0-48.248-39.252-87.5-87.5-87.5s-87.5 39.252-87.5 87.5v29.672a80.372 80.372 0 01-20.665 53.851l-21.112 23.458a7.501 7.501 0 0011.15 10.035l21.112-23.458a95.35 95.35 0 0024.515-63.886V247.5c0-39.977 32.523-72.5 72.5-72.5s72.5 32.523 72.5 72.5v32.864c0 59.958-22.212 117.412-62.545 161.777l-7.507 8.258a7.5 7.5 0 0011.099 10.09l7.506-8.258c42.848-47.133 66.446-108.169 66.446-171.867V247.5z"/><path d="M116.476 247.5c0 4.143 3.358 7.5 7.5 7.5s7.5-3.357 7.5-7.5c0-25.255 9.169-49.651 25.819-68.695 16.495-18.867 39.134-31.205 63.746-34.741a7.5 7.5 0 00-2.133-14.847c-28.16 4.046-54.052 18.15-72.906 39.716a119.347 119.347 0 00-29.526 78.567zm15 29.672c0-4.143-3.358-7.5-7.5-7.5s-7.5 3.357-7.5 7.5a48.42 48.42 0 01-12.449 32.443l-18.779 20.867a7.5 7.5 0 1011.15 10.034l18.779-20.866a63.402 63.402 0 0016.299-42.478zm209.279 66.951a7.505 7.505 0 00-9.155 5.357 272.367 272.367 0 01-10.24 31.258 7.5 7.5 0 006.971 10.264 7.504 7.504 0 006.975-4.739 287.597 287.597 0 0010.806-32.986 7.502 7.502 0 00-5.357-9.154zm-24.964-185.491a7.5 7.5 0 10-10.029 11.154c22.061 19.832 34.713 48.157 34.713 77.714v32.864c0 12.473-.86 25.042-2.557 37.359a7.5 7.5 0 1014.859 2.046 289.747 289.747 0 002.698-39.406V247.5c.001-33.805-14.464-66.196-39.684-88.868zm-35.062-5.556a7.501 7.501 0 009.996-3.548 7.5 7.5 0 00-3.547-9.995 118.513 118.513 0 00-34.136-10.317 7.5 7.5 0 00-2.133 14.847 103.575 103.575 0 0129.82 9.013z"/><path d="M235.976 96c-2.806 0-5.644.078-8.437.232a7.5 7.5 0 00-7.076 7.901c.229 4.136 3.763 7.321 7.902 7.075 2.519-.139 5.079-.209 7.61-.209 75.266 0 136.5 61.233 136.5 136.5v32.864c0 4.143 3.358 7.5 7.5 7.5s7.5-3.357 7.5-7.5V247.5C387.476 163.963 319.513 96 235.976 96zm-82.004 40.693a7.47 7.47 0 004.275-1.343c12.478-8.677 26.182-15.155 40.733-19.258a7.5 7.5 0 00-4.07-14.438c-16.16 4.556-31.376 11.749-45.226 21.379a7.5 7.5 0 00-1.876 10.439 7.487 7.487 0 006.164 3.221zM99.476 277.172V247.5c0-34.89 13.213-68.118 37.205-93.565a7.5 7.5 0 00-10.914-10.29C99.14 171.886 84.476 208.77 84.476 247.5v29.672c0 4.083-1.504 8.002-4.234 11.035l-9.248 10.275a7.5 7.5 0 00.558 10.592A7.467 7.467 0 0076.567 311a7.482 7.482 0 005.577-2.482l9.248-10.275a31.454 31.454 0 008.084-21.071zm310.475-88.068c-8.226-24.446-21.299-46.531-38.856-65.642a7.5 7.5 0 00-10.597-.449 7.502 7.502 0 00-.449 10.598c16.127 17.554 28.134 37.834 35.686 60.276a7.503 7.503 0 007.107 5.11 7.5 7.5 0 007.109-9.893zM295.247 73.822a7.5 7.5 0 00-4.856 14.191c16.538 5.659 32.065 13.857 46.15 24.369a7.466 7.466 0 004.48 1.489 7.5 7.5 0 004.492-13.511c-15.337-11.444-32.249-20.374-50.266-26.538z"/><path d="M119.442 125.908C150.991 95.659 192.377 79 235.976 79c8.096 0 16.237.583 24.196 1.731 4.103.598 7.903-2.252 8.495-6.352a7.499 7.499 0 00-6.351-8.494A185.167 185.167 0 00235.976 64c-47.487 0-92.56 18.141-126.915 51.081-34.248 32.838-54.277 76.905-56.397 124.084a7.5 7.5 0 007.498 7.837 7.5 7.5 0 007.487-7.163c1.945-43.312 20.339-83.773 51.793-113.931z"/><path d="M235.976 32c-16.772 0-33.485 1.944-49.674 5.778a7.5 7.5 0 103.457 14.595A200.91 200.91 0 01235.976 47c54.996 0 106.332 21.911 144.55 61.695a7.478 7.478 0 005.41 2.305 7.5 7.5 0 005.408-12.695c-19.913-20.729-43.304-37.036-69.522-48.465C294.666 38.002 265.783 32 235.976 32zM67.507 125.404a7.47 7.47 0 004.619 1.595 7.486 7.486 0 005.91-2.876c21.375-27.302 49.515-48.717 81.377-61.932 3.826-1.587 5.642-5.975 4.055-9.801s-5.977-5.644-9.801-4.055c-34.241 14.201-64.478 37.21-87.441 66.539a7.501 7.501 0 001.281 10.53zm64.476-86.679c1.094 0 2.205-.24 3.255-.748C166.816 22.73 200.709 15 235.976 15c18.378 0 36.682 2.162 54.401 6.426a7.5 7.5 0 003.508-14.584C275.019 2.302 255.535 0 235.976 0c-37.544 0-73.631 8.232-107.259 24.469a7.5 7.5 0 003.266 14.256zm189.741-7.342a232.314 232.314 0 0122.746 10.52 7.498 7.498 0 0010.138-3.115 7.5 7.5 0 00-3.115-10.139 247.448 247.448 0 00-24.22-11.201 7.5 7.5 0 10-5.549 13.935z"/></svg><svg viewBox="0 0 24 33" id="mappin" xmlns="http://www.w3.org/2000/svg"><path d="M12 0C5.383 0 0 5.383 0 12c0 2.178.977 4.521 1.018 4.62.315.749.938 1.912 1.387 2.594l8.228 12.467c.336.51.835.804 1.367.804s1.03-.293 1.367-.804l8.229-12.467a19.277 19.277 0 001.387-2.594C23.023 16.522 24 14.18 24 12c0-6.617-5.383-12-12-12zm9.681 16.072a17.727 17.727 0 01-1.264 2.365l-8.229 12.467c-.162.247-.213.247-.376 0L3.584 18.437A17.735 17.735 0 012.32 16.07c-.012-.028-.908-2.185-.908-4.071C1.412 6.162 6.162 1.412 12 1.412c5.838 0 10.588 4.75 10.588 10.588 0 1.889-.898 4.051-.907 4.072z"/><path d="M12 5.648A6.36 6.36 0 005.647 12 6.36 6.36 0 0012 18.354 6.36 6.36 0 0018.353 12 6.36 6.36 0 0012 5.648zm0 11.294A4.947 4.947 0 017.059 12a4.947 4.947 0 014.94-4.941A4.947 4.947 0 0116.942 12 4.947 4.947 0 0112 16.943z"/></svg><svg viewBox="0 0 30 30" id="mappinline" xmlns="http://www.w3.org/2000/svg"><path d="M23.438 26.25H17.64a31.218 31.218 0 002.754-2.783c3.217-3.7 4.918-7.6 4.918-11.28a10.312 10.312 0 00-20.625 0c0 3.68 1.7 7.58 4.917 11.28a31.214 31.214 0 002.754 2.783H6.563a.938.938 0 000 1.875h16.875a.938.938 0 000-1.875zM15 8.437a3.75 3.75 0 110 7.5 3.75 3.75 0 010-7.5z"/></svg><svg viewBox="0 0 51 50" id="usergear" xmlns="http://www.w3.org/2000/svg"><path fill-rule="evenodd" clip-rule="evenodd" d="M43.219 5.844a2.938 2.938 0 100 5.875 2.938 2.938 0 000-5.875zM38.28 8.78a4.938 4.938 0 119.875 0 4.938 4.938 0 01-9.875 0z"/><path fill-rule="evenodd" clip-rule="evenodd" d="M43.219.89a1 1 0 011 1v2.954a1 1 0 01-2 0V1.89a1 1 0 011-1zm-6.834 3.946a1 1 0 011.366-.366l2.558 1.477a1 1 0 11-1 1.732L36.75 6.202a1 1 0 01-.366-1.366zm4.29 5.414a1 1 0 01-.366 1.366l-2.558 1.477a1 1 0 01-1-1.732l2.558-1.477a1 1 0 011.366.366zm2.544 1.469a1 1 0 011 1v2.953a1 1 0 01-2 0v-2.953a1 1 0 011-1zm2.544-1.469a1 1 0 011.366-.366l2.558 1.477a1 1 0 01-1 1.732l-2.558-1.477a1 1 0 01-.366-1.366zm4.29-5.414a1 1 0 01-.366 1.366L47.129 7.68a1 1 0 01-1-1.732l2.558-1.477a1 1 0 011.366.366zM25.5 35.375a26.573 26.573 0 00-23.008 13.28A1 1 0 01.76 47.653a28.572 28.572 0 0149.48 0 1 1 0 11-1.732 1A26.572 26.572 0 0025.5 35.376z"/><path fill-rule="evenodd" clip-rule="evenodd" d="M27.542 4.015a14.743 14.743 0 1011.47 20.535 1 1 0 011.83.804 16.743 16.743 0 11-13.025-23.32 1 1 0 01-.275 1.981z"/></svg></svg>