<svg width="51" height="50" fill="none" xmlns="http://www.w3.org/2000/svg"><path fill-rule="evenodd" clip-rule="evenodd" d="M43.219 5.844a2.938 2.938 0 100 5.875 2.938 2.938 0 000-5.875zM38.28 8.78a4.938 4.938 0 119.875 0 4.938 4.938 0 01-9.875 0z" fill="#099DBA"/><path fill-rule="evenodd" clip-rule="evenodd" d="M43.219.89a1 1 0 011 1v2.954a1 1 0 01-2 0V1.89a1 1 0 011-1zm-6.834 3.946a1 1 0 011.366-.366l2.558 1.477a1 1 0 11-1 1.732L36.75 6.202a1 1 0 01-.366-1.366zm4.29 5.414a1 1 0 01-.366 1.366l-2.558 1.477a1 1 0 01-1-1.732l2.558-1.477a1 1 0 011.366.366zm2.544 1.469a1 1 0 011 1v2.953a1 1 0 01-2 0v-2.953a1 1 0 011-1zm2.544-1.469a1 1 0 011.366-.366l2.558 1.477a1 1 0 01-1 1.732l-2.558-1.477a1 1 0 01-.366-1.366zm4.29-5.414a1 1 0 01-.366 1.366L47.129 7.68a1 1 0 01-1-1.732l2.558-1.477a1 1 0 011.366.366zM25.5 35.375a26.573 26.573 0 00-23.008 13.28A1 1 0 01.76 47.653a28.572 28.572 0 0149.48 0 1 1 0 11-1.732 1A26.572 26.572 0 0025.5 35.376z" fill="#099DBA"/><path fill-rule="evenodd" clip-rule="evenodd" d="M27.542 4.015a14.743 14.743 0 1011.47 20.535 1 1 0 011.83.804 16.743 16.743 0 11-13.025-23.32 1 1 0 01-.275 1.981z" fill="#099DBA"/></svg>