<svg width="28" height="28" fill="none" xmlns="http://www.w3.org/2000/svg"><path d="M14 28c7.732 0 14-6.268 14-14S21.732 0 14 0 0 6.268 0 14s6.268 14 14 14z" fill="url(#paint0_linear_310_689)"/><path d="M11.433 20.417c-.454 0-.376-.171-.533-.603l-1.334-4.39 10.267-6.09" fill="#C8DAEA"/><path d="M11.434 20.417c.35 0 .504-.16.7-.35L14 18.252l-2.328-1.404" fill="#A9C9DD"/><path d="M11.671 16.848l5.642 4.168c.644.355 1.109.171 1.269-.598l2.297-10.822c.235-.943-.36-1.37-.976-1.09l-13.485 5.2c-.92.369-.915.882-.168 1.11l3.46 1.081 8.013-5.055c.378-.229.725-.106.44.147" fill="url(#paint1_linear_310_689)"/><defs><linearGradient id="paint0_linear_310_689" x1="10.501" y1="1.168" x2="3.501" y2="17.5" gradientUnits="userSpaceOnUse"><stop stop-color="#37AEE2"/><stop offset="1" stop-color="#1E96C8"/></linearGradient><linearGradient id="paint1_linear_310_689" x1="12.247" y1="14.86" x2="13.743" y2="19.699" gradientUnits="userSpaceOnUse"><stop stop-color="#EFF7FC"/><stop offset="1" stop-color="#fff"/></linearGradient></defs></svg>